<svg width="24" height="24" viewBox="0 0 24 24" fill="none" xmlns="http://www.w3.org/2000/svg">
<g clip-path="url(#clip0_1_965)">
<path d="M12 23.5999C18.4065 23.5999 23.6 18.4064 23.6 11.9999C23.6 5.5934 18.4065 0.399902 12 0.399902C5.59349 0.399902 0.399994 5.5934 0.399994 11.9999C0.399994 18.4064 5.59349 23.5999 12 23.5999Z" stroke="#05C2C4"/>
<path d="M12 21.5999C17.3019 21.5999 21.6 17.3018 21.6 11.9999C21.6 6.69797 17.3019 2.3999 12 2.3999C6.69806 2.3999 2.39999 6.69797 2.39999 11.9999C2.39999 17.3018 6.69806 21.5999 12 21.5999Z" fill="#05C2C4"/>
<path d="M13.9151 8.75291C13.7371 8.59147 13.4619 8.60499 13.3006 8.78299L9.29577 13.2L7.40684 11.6511C7.25854 11.5296 7.04176 11.5157 6.8772 11.6313C6.67917 11.7704 6.63138 12.0436 6.77045 12.2417L8.73368 15.0371C8.78728 15.1129 8.85664 15.1834 8.93776 15.239C9.30601 15.4919 9.80944 15.3983 10.0622 15.03L10.0944 14.9833L13.9816 9.32155C14.1032 9.14483 14.0784 8.90099 13.9151 8.75291Z" fill="white"/>
<path d="M17.6464 8.75291C17.4684 8.59147 17.1932 8.60499 17.0318 8.78299L13.027 13.2L12.3677 12.6593L11.5918 13.7938L12.4649 15.0371C12.5186 15.1129 12.5879 15.1834 12.669 15.239C13.0372 15.4919 13.5407 15.3983 13.7935 15.03L13.8256 14.9833L17.7128 9.32155C17.8345 9.14483 17.8097 8.90099 17.6464 8.75291Z" fill="white"/>
</g>
<defs>
<clipPath id="clip0_1_965">
<rect width="24" height="24" fill="white"/>
</clipPath>
</defs>
</svg>
