<svg width="240" height="37" viewBox="0 0 240 37" fill="none" xmlns="http://www.w3.org/2000/svg">
<g clip-path="url(#clip0_1_518)">
<path d="M13.4374 11.8497H4.27897V27.3619H0V7.87793H17.7164V27.3619H13.4374V11.8497Z" fill="#FF4A37"/>
<path d="M21.8804 7.87785H26.1594V10.0136C27.0352 9.18927 27.9735 8.5523 28.9744 8.10266C29.9754 7.65304 31.1014 7.42822 32.3526 7.42822C33.7539 7.42822 35.0427 7.69051 36.2188 8.21507C37.4199 8.71466 38.4457 9.42658 39.2965 10.3508C40.1473 11.2501 40.8105 12.3243 41.2859 13.5731C41.7614 14.7972 41.999 16.1336 41.999 17.5823C41.999 19.0811 41.7364 20.455 41.2109 21.704C40.7104 22.928 40.0222 23.9896 39.1464 24.8889C38.2707 25.7632 37.2197 26.4501 35.9935 26.9497C34.7924 27.4493 33.5037 27.6991 32.1274 27.6991C30.9012 27.6991 29.8002 27.5118 28.8243 27.1371C27.8484 26.7623 26.9601 26.2378 26.1594 25.5634V34.8557H21.8804V7.87785ZM31.4893 23.7274C32.3401 23.7274 33.1283 23.59 33.854 23.3151C34.6047 23.0404 35.2553 22.6408 35.8058 22.1162C36.3563 21.5666 36.7817 20.9172 37.082 20.1677C37.4073 19.3934 37.57 18.5191 37.57 17.545C37.57 16.6457 37.4323 15.8214 37.1571 15.0719C36.8818 14.2976 36.4814 13.6481 35.956 13.1235C35.4555 12.574 34.8549 12.1493 34.1543 11.8497C33.4536 11.5499 32.6779 11.4 31.8271 11.4C30.5259 11.4 29.3748 11.7122 28.3739 12.3367C27.398 12.9611 26.6598 13.7106 26.1594 14.5849V20.505C26.6598 21.5542 27.3729 22.3535 28.2988 22.903C29.2247 23.4526 30.2882 23.7274 31.4893 23.7274Z" fill="#FF4A37"/>
<path d="M44.2223 17.5823C44.2223 16.1086 44.4725 14.7597 44.973 13.5358C45.4735 12.2868 46.1867 11.2126 47.1125 10.3134C48.0384 9.41409 49.1394 8.71466 50.4156 8.21507C51.6918 7.69051 53.1056 7.42822 54.657 7.42822C56.1835 7.42822 57.5848 7.69051 58.861 8.21507C60.1622 8.71466 61.2757 9.41409 62.2015 10.3134C63.1274 11.2126 63.8406 12.2868 64.3411 13.5358C64.8666 14.7597 65.1292 16.1086 65.1292 17.5823C65.1292 19.0562 64.8666 20.4175 64.3411 21.6665C63.8406 22.8906 63.1274 23.9521 62.2015 24.8514C61.2757 25.7507 60.1622 26.4501 58.861 26.9497C57.5848 27.4493 56.1835 27.6991 54.657 27.6991C53.1306 27.6991 51.7293 27.4493 50.4531 26.9497C49.1769 26.4501 48.0759 25.7507 47.15 24.8514C46.2242 23.9521 45.4985 22.8906 44.973 21.6665C44.4725 20.4175 44.2223 19.0562 44.2223 17.5823ZM48.6514 17.5823C48.6514 18.4567 48.7891 19.2686 49.0644 20.0179C49.3646 20.7672 49.7775 21.4167 50.303 21.9663C50.8285 22.5159 51.454 22.953 52.1797 23.2778C52.9304 23.5774 53.7562 23.7274 54.657 23.7274C55.5579 23.7274 56.3711 23.59 57.0968 23.3151C57.8475 23.0154 58.4856 22.6033 59.0111 22.0787C59.5366 21.5292 59.9494 20.8797 60.2497 20.1304C60.55 19.3809 60.7001 18.5316 60.7001 17.5823C60.7001 16.6331 60.5375 15.7839 60.2122 15.0344C59.9119 14.2601 59.4865 13.6106 58.936 13.0861C58.3855 12.5365 57.7474 12.1244 57.0217 11.8497C56.296 11.5499 55.5078 11.4 54.657 11.4C53.8062 11.4 53.0055 11.5499 52.2548 11.8497C51.5291 12.1244 50.8911 12.5365 50.3406 13.0861C49.8151 13.6106 49.4021 14.2601 49.1018 15.0344C48.8016 15.7839 48.6514 16.6331 48.6514 17.5823Z" fill="#FF4A37"/>
<path d="M66.2719 23.3902H68.5315C69.4103 22.2661 70.0003 20.9797 70.3016 19.5309C70.6029 18.0821 70.7535 16.4459 70.7535 14.6224V7.87793H86.496V23.3902H89.2452V31.8208H85.2532V27.3619H70.2639V31.8208H66.2719V23.3902ZM82.2026 23.3902V11.8497H74.8209V16.8331C74.8209 18.0321 74.6578 19.2312 74.3313 20.4301C74.005 21.6042 73.5531 22.5909 72.9756 23.3902H82.2026Z" fill="#3981F1"/>
<path d="M90.1166 17.5823C90.1166 16.1086 90.3676 14.7597 90.8698 13.5358C91.3719 12.2868 92.0875 11.2126 93.0164 10.3134C93.9454 9.41409 95.0502 8.71466 96.3306 8.21507C97.6111 7.69051 99.0297 7.42822 100.586 7.42822C102.118 7.42822 103.524 7.69051 104.804 8.21507C106.11 8.71466 107.227 9.41409 108.156 10.3134C109.085 11.2126 109.801 12.2868 110.303 13.5358C110.83 14.7597 111.094 16.1086 111.094 17.5823C111.094 19.0562 110.83 20.4175 110.303 21.6665C109.801 22.8906 109.085 23.9521 108.156 24.8514C107.227 25.7507 106.11 26.4501 104.804 26.9497C103.524 27.4493 102.118 27.6991 100.586 27.6991C99.0548 27.6991 97.6487 27.4493 96.3683 26.9497C95.0878 26.4501 93.9831 25.7507 93.0541 24.8514C92.1251 23.9521 91.397 22.8906 90.8698 21.6665C90.3676 20.4175 90.1166 19.0562 90.1166 17.5823ZM94.5606 17.5823C94.5606 18.4567 94.6986 19.2686 94.9748 20.0179C95.2761 20.7672 95.6904 21.4167 96.2176 21.9663C96.7449 22.5159 97.3726 22.953 98.1007 23.2778C98.854 23.5774 99.6825 23.7274 100.586 23.7274C101.49 23.7274 102.306 23.59 103.034 23.3151C103.788 23.0154 104.428 22.6033 104.955 22.0787C105.482 21.5292 105.897 20.8797 106.198 20.1304C106.499 19.3809 106.65 18.5316 106.65 17.5823C106.65 16.6331 106.487 15.7839 106.16 15.0344C105.859 14.2601 105.432 13.6106 104.88 13.0861C104.327 12.5365 103.687 12.1244 102.959 11.8497C102.231 11.5499 101.44 11.4 100.586 11.4C99.7327 11.4 98.9293 11.5499 98.176 11.8497C97.448 12.1244 96.8076 12.5365 96.2553 13.0861C95.7281 13.6106 95.3138 14.2601 95.0125 15.0344C94.7112 15.7839 94.5606 16.6331 94.5606 17.5823Z" fill="#3981F1"/>
<path d="M113.751 7.87793H118.044V15.784L126.518 7.87793H132.129L122.601 16.6833L132.468 27.3619H126.97L119.476 19.3435L118.044 20.7298V27.3619H113.751V7.87793Z" fill="#3981F1"/>
<path d="M133.823 7.87793H152.278V11.8497H145.197V27.3619H140.904V11.8497H133.823V7.87793Z" fill="#3981F1"/>
<path d="M153.216 17.5823C153.216 16.1086 153.467 14.7597 153.97 13.5358C154.472 12.2868 155.187 11.2126 156.116 10.3134C157.045 9.41409 158.15 8.71466 159.431 8.21507C160.711 7.69051 162.13 7.42822 163.686 7.42822C165.218 7.42822 166.624 7.69051 167.904 8.21507C169.21 8.71466 170.327 9.41409 171.256 10.3134C172.185 11.2126 172.901 12.2868 173.403 13.5358C173.931 14.7597 174.193 16.1086 174.193 17.5823C174.193 19.0562 173.931 20.4175 173.403 21.6665C172.901 22.8906 172.185 23.9521 171.256 24.8514C170.327 25.7507 169.21 26.4501 167.904 26.9497C166.624 27.4493 165.218 27.6991 163.686 27.6991C162.155 27.6991 160.748 27.4493 159.468 26.9497C158.188 26.4501 157.083 25.7507 156.154 24.8514C155.225 23.9521 154.497 22.8906 153.97 21.6665C153.467 20.4175 153.216 19.0562 153.216 17.5823ZM157.661 17.5823C157.661 18.4567 157.799 19.2686 158.074 20.0179C158.376 20.7672 158.79 21.4167 159.318 21.9663C159.844 22.5159 160.473 22.953 161.201 23.2778C161.954 23.5774 162.782 23.7274 163.686 23.7274C164.59 23.7274 165.407 23.59 166.135 23.3151C166.888 23.0154 167.527 22.6033 168.055 22.0787C168.582 21.5292 168.997 20.8797 169.297 20.1304C169.599 19.3809 169.75 18.5316 169.75 17.5823C169.75 16.6331 169.586 15.7839 169.26 15.0344C168.959 14.2601 168.532 13.6106 167.98 13.0861C167.427 12.5365 166.787 12.1244 166.059 11.8497C165.331 11.5499 164.539 11.4 163.686 11.4C162.832 11.4 162.029 11.5499 161.276 11.8497C160.548 12.1244 159.907 12.5365 159.355 13.0861C158.827 13.6106 158.414 14.2601 158.112 15.0344C157.812 15.7839 157.661 16.6331 157.661 17.5823Z" fill="#3981F1"/>
<path d="M176.817 7.87785H181.11V10.0136C181.988 9.18927 182.93 8.5523 183.934 8.10266C184.939 7.65304 186.069 7.42822 187.324 7.42822C188.73 7.42822 190.023 7.69051 191.204 8.21507C192.408 8.71466 193.437 9.42658 194.291 10.3508C195.145 11.2501 195.811 12.3243 196.287 13.5731C196.765 14.7972 197.002 16.1336 197.002 17.5823C197.002 19.0811 196.74 20.455 196.212 21.704C195.71 22.928 195.02 23.9896 194.14 24.8889C193.261 25.7632 192.207 26.4501 190.977 26.9497C189.772 27.4493 188.478 27.6991 187.098 27.6991C185.868 27.6991 184.763 27.5118 183.783 27.1371C182.804 26.7623 181.913 26.2378 181.11 25.5634V34.8557H176.817V7.87785ZM186.458 23.7274C187.312 23.7274 188.103 23.59 188.83 23.3151C189.583 23.0404 190.237 22.6408 190.789 22.1162C191.341 21.5666 191.768 20.9172 192.07 20.1677C192.395 19.3934 192.559 18.5191 192.559 17.545C192.559 16.6457 192.421 15.8214 192.145 15.0719C191.869 14.2976 191.466 13.6481 190.94 13.1235C190.437 12.574 189.835 12.1493 189.132 11.8497C188.428 11.5499 187.65 11.4 186.797 11.4C185.492 11.4 184.336 11.7122 183.332 12.3367C182.353 12.9611 181.612 13.7106 181.11 14.5849V20.505C181.612 21.5542 182.328 22.3535 183.257 22.903C184.186 23.4526 185.253 23.7274 186.458 23.7274Z" fill="#3981F1"/>
<path d="M199.132 17.5823C199.132 16.1086 199.384 14.7597 199.885 13.5358C200.388 12.2868 201.103 11.2126 202.032 10.3134C202.961 9.41409 204.066 8.71466 205.346 8.21507C206.627 7.69051 208.046 7.42822 209.602 7.42822C211.133 7.42822 212.54 7.69051 213.821 8.21507C215.125 8.71466 216.243 9.41409 217.172 10.3134C218.101 11.2126 218.816 12.2868 219.319 13.5358C219.846 14.7597 220.11 16.1086 220.11 17.5823C220.11 19.0562 219.846 20.4175 219.319 21.6665C218.816 22.8906 218.101 23.9521 217.172 24.8514C216.243 25.7507 215.125 26.4501 213.821 26.9497C212.54 27.4493 211.133 27.6991 209.602 27.6991C208.071 27.6991 206.664 27.4493 205.383 26.9497C204.104 26.4501 202.999 25.7507 202.07 24.8514C201.141 23.9521 200.413 22.8906 199.885 21.6665C199.384 20.4175 199.132 19.0562 199.132 17.5823ZM203.576 17.5823C203.576 18.4567 203.714 19.2686 203.991 20.0179C204.292 20.7672 204.706 21.4167 205.234 21.9663C205.761 22.5159 206.388 22.953 207.117 23.2778C207.87 23.5774 208.698 23.7274 209.602 23.7274C210.506 23.7274 211.322 23.59 212.05 23.3151C212.804 23.0154 213.444 22.6033 213.97 22.0787C214.498 21.5292 214.912 20.8797 215.213 20.1304C215.515 19.3809 215.666 18.5316 215.666 17.5823C215.666 16.6331 215.503 15.7839 215.176 15.0344C214.874 14.2601 214.448 13.6106 213.895 13.0861C213.343 12.5365 212.703 12.1244 211.974 11.8497C211.246 11.5499 210.456 11.4 209.602 11.4C208.748 11.4 207.945 11.5499 207.192 11.8497C206.463 12.1244 205.823 12.5365 205.271 13.0861C204.744 13.6106 204.33 14.2601 204.028 15.0344C203.727 15.7839 203.576 16.6331 203.576 17.5823Z" fill="#3981F1"/>
<path d="M222.776 7.87793H231.137C233.874 7.87793 235.933 8.26511 237.314 9.03948C238.694 9.81384 239.386 11.1502 239.386 13.0487C239.386 13.9479 239.184 14.7098 238.782 15.3343C238.381 15.9588 237.853 16.5209 237.201 17.0204C238.13 17.3702 238.82 17.9571 239.272 18.7815C239.724 19.5809 239.95 20.505 239.95 21.5543C239.95 23.5026 239.26 24.964 237.878 25.9381C236.498 26.8873 234.552 27.3619 232.041 27.3619H222.776V7.87793ZM227.07 19.306V23.5026H231.627C232.907 23.5026 233.874 23.3403 234.527 23.0155C235.18 22.6908 235.506 22.1662 235.506 21.4418C235.506 20.6674 235.192 20.1179 234.565 19.7932C233.962 19.4684 233.02 19.306 231.74 19.306H227.07ZM227.07 11.7373V15.5966H232.116C232.995 15.5966 233.686 15.4343 234.188 15.1095C234.691 14.7848 234.941 14.2852 234.941 13.6107C234.941 12.8114 234.603 12.2993 233.924 12.0745C233.271 11.8497 232.305 11.7373 231.024 11.7373H227.07Z" fill="#3981F1"/>
</g>
<defs>
<clipPath id="clip0_1_518">
<rect width="239.95" height="36.57" fill="white"/>
</clipPath>
</defs>
</svg>
