<svg width="16" height="16" viewBox="0 0 16 16" fill="none" xmlns="http://www.w3.org/2000/svg">
<g clip-path="url(#clip0_1_120)">
<path d="M12.1644 10.5843C11.6416 10.0682 10.9891 10.0682 10.4697 10.5843C10.0734 10.9772 9.67722 11.3701 9.28767 11.7696C9.18112 11.8795 9.09122 11.9028 8.96137 11.8295C8.705 11.6897 8.43198 11.5765 8.18559 11.4233C7.0369 10.7008 6.07467 9.77194 5.22231 8.72649C4.79946 8.2071 4.42322 7.65108 4.16019 7.02514C4.10692 6.89862 4.11691 6.81539 4.22012 6.71218C4.61634 6.32929 5.00256 5.93641 5.39212 5.54354C5.93483 4.99751 5.93483 4.35826 5.38879 3.8089C5.07914 3.49593 4.76949 3.18962 4.45985 2.87665C4.14021 2.55703 3.82391 2.23407 3.50094 1.91777C2.97821 1.40837 2.32562 1.40837 1.80621 1.9211C1.40667 2.31398 1.02377 2.71684 0.61757 3.10305C0.241333 3.45931 0.0515499 3.89546 0.0115955 4.40487C-0.0516656 5.2339 0.151436 6.01632 0.437775 6.77876C1.02377 8.35692 1.91609 9.75862 2.99818 11.0438C4.45985 12.7817 6.20452 14.1568 8.24552 15.149C9.16447 15.5951 10.1167 15.9381 11.1522 15.9947C11.8647 16.0346 12.484 15.8548 12.9801 15.2988C13.3197 14.9193 13.7026 14.573 14.0622 14.2101C14.5949 13.6707 14.5983 13.0181 14.0689 12.4854C13.4363 11.8495 12.8003 11.2169 12.1644 10.5843Z" fill="#00B2B8"/>
<path d="M11.5284 7.93076L12.757 7.72101C12.5639 6.59233 12.0312 5.57019 11.2221 4.7578C10.3664 3.90213 9.2843 3.36276 8.09233 3.19629L7.91919 4.43151C8.84147 4.56136 9.68051 4.97754 10.3431 5.6401C10.9691 6.26604 11.3786 7.05845 11.5284 7.93076Z" fill="#00B2B8"/>
<path d="M13.4496 2.59031C12.0312 1.17197 10.2366 0.276344 8.25553 0L8.0824 1.23522C9.79378 1.47495 11.3453 2.25071 12.5706 3.47261C13.7326 4.63459 14.4951 6.10288 14.7714 7.71766L16 7.5079C15.677 5.63675 14.7947 3.93874 13.4496 2.59031Z" fill="#00B2B8"/>
</g>
<defs>
<clipPath id="clip0_1_120">
<rect width="16" height="16" fill="white"/>
</clipPath>
</defs>
</svg>
